<svg width="188" height="40" viewBox="0 0 188 40" fill="none" xmlns="http://www.w3.org/2000/svg">
    <path d="M16.0367 40H15.7056L2.92415 32.8477C1.40097 32.053 0.341371 30.5298 0.0764702 28.8742C-0.0559801 27.7483 0.0102451 15.6954 0.0764702 8.54305C0.0764702 6.35762 0.0764702 4.63576 0.0764702 3.97351L0.407596 3.64238C7.03011 3.64238 12.1295 2.45033 15.9043 0H16.3016C19.348 2.38411 24.5136 3.64238 31.7321 3.64238L32.0632 3.97351V28.8079C32.0632 31.9868 27.4937 34.0397 27.1626 34.2384L16.0367 40ZM0.738722 28.7417C1.00362 30.1987 1.93077 31.5232 3.25528 32.2517L15.9043 39.3377L26.8977 33.6424C26.9639 33.6424 31.401 31.6556 31.401 28.8742V4.37086C24.3811 4.23841 19.2155 3.04636 16.0367 0.596026C12.2619 3.04636 7.22879 4.23841 0.738722 4.23841C0.738722 5.09934 0.738722 6.62252 0.738722 8.47682C0.672497 15.2318 0.672497 27.6159 0.738722 28.7417ZM7.69236 28.6093L24.8447 11.457C24.9109 11.3907 24.9109 11.3245 24.9109 11.1921C24.9109 11.1258 24.8447 10.9934 24.7785 10.9272C24.646 10.7947 24.4473 10.7947 24.3149 10.9272L7.22879 28.1457C7.16256 28.2119 7.16256 28.2781 7.16256 28.4106C7.16256 28.4768 7.22879 28.6093 7.29501 28.6755C7.36124 28.7417 7.42746 28.7417 7.49369 28.7417C7.55991 28.7417 7.62614 28.6755 7.69236 28.6093ZM24.8447 28.6093C24.9109 28.543 24.9771 28.4768 24.9771 28.3444C24.9771 28.2781 24.9771 28.1457 24.9109 28.0795L7.69236 10.9934C7.55991 10.8609 7.36124 10.8609 7.22879 10.9934C7.16256 11.0596 7.09634 11.1258 7.09634 11.2583C7.09634 11.3245 7.09634 11.457 7.16256 11.5232L24.3149 28.6755C24.3811 28.7417 24.4473 28.7417 24.5798 28.7417C24.646 28.7417 24.7785 28.6755 24.8447 28.6093ZM4.44733 18.4768C4.38111 18.4768 4.38111 18.4768 4.31488 18.4768C4.18243 18.8742 4.04998 19.3377 4.04998 19.8013C4.38111 19.404 4.71223 19.0066 4.91091 18.4768C4.77846 18.4768 4.64601 18.4768 4.44733 18.4768ZM5.90428 18.6093C5.77183 18.6093 5.57316 18.543 5.44071 18.543C5.17581 19.2715 4.71223 19.8675 4.18243 20.3974C4.31488 21.1258 4.57978 21.7219 5.04336 22.2517C5.04336 22.1854 5.04336 22.053 5.04336 21.9868C4.97713 20.7285 5.30826 19.6026 5.90428 18.6093ZM11.2023 21.457C11.4672 20.9272 11.5996 20.3974 11.5996 19.8013C11.5996 19.0728 11.401 18.4106 11.0698 17.8808C10.8712 17.8146 10.6725 17.8146 10.4738 17.8146C9.54667 17.8146 8.68574 18.2119 8.02349 18.8079C9.28177 19.404 10.4076 20.3311 11.2023 21.457ZM7.82481 23.5762C9.14932 23.5762 10.3414 22.9139 11.0036 21.9205C10.2089 20.7285 9.01687 19.8013 7.69236 19.2053C7.22879 19.8013 6.96389 20.5298 6.96389 21.3245C6.96389 22.1854 7.29501 22.9801 7.82481 23.5762ZM4.51356 18.0132C4.71223 18.0132 4.91091 18.0132 5.10958 18.0132C5.24203 17.6821 5.24203 17.351 5.30826 17.0199C4.97713 17.351 4.71223 17.6821 4.51356 18.0132ZM7.29501 19.0066C6.96389 18.8742 6.69899 18.8079 6.36786 18.7417C5.77183 19.6689 5.44071 20.7947 5.44071 21.9868C5.44071 22.2517 5.44071 22.5166 5.50693 22.7152C5.97051 23.1126 6.56654 23.3775 7.22879 23.5099C6.83144 22.8477 6.56654 22.1192 6.56654 21.3245C6.50031 20.4636 6.76521 19.6689 7.29501 19.0066ZM6.63276 18.3444C6.96389 18.4106 7.29501 18.543 7.55991 18.6755C8.28839 17.8808 9.28177 17.4172 10.4076 17.4172C10.4738 17.4172 10.6063 17.4172 10.6725 17.4172C10.2751 16.9536 9.74535 16.5563 9.14932 16.3576C8.15594 16.755 7.29501 17.4172 6.63276 18.3444ZM5.50693 18.1457C5.70561 18.1457 5.90428 18.2119 6.10296 18.2119C6.69899 17.351 7.55991 16.6225 8.48707 16.0927C8.28839 16.0265 8.02349 16.0265 7.75859 16.0265C6.96389 16.0265 6.23541 16.2914 5.63938 16.6887C5.77183 17.2185 5.63938 17.6821 5.50693 18.1457ZM20.0765 27.8808C20.2751 27.0199 20.1427 26.2914 19.6791 25.8278C19.2155 25.3642 18.4871 25.2318 17.6261 25.4305C17.9573 25.894 18.3546 26.4238 18.752 26.8212C19.1493 27.1523 19.5467 27.5497 20.0765 27.8808ZM12.3944 32.9801C12.8579 33.4437 13.5864 33.5762 14.4473 33.3775C14.1162 32.9139 13.7851 32.4503 13.3877 32.053C12.9242 31.5894 12.4606 31.2583 11.997 30.9272C11.7983 31.7881 11.9308 32.5166 12.3944 32.9801ZM17.1626 25.4967C16.1692 25.8278 15.0434 26.4901 14.1162 27.4834C13.1228 28.4768 12.4606 29.5364 12.1294 30.5298C12.7255 30.8609 13.2553 31.3245 13.7189 31.7881C14.1824 32.2517 14.5798 32.7815 14.9771 33.3113C15.9705 32.9801 17.0301 32.3179 18.0235 31.3907C19.0169 30.4636 19.6791 29.3377 19.944 28.3444C19.4142 28.0132 18.8844 27.6159 18.4208 27.0861C17.891 26.5563 17.4937 26.0265 17.1626 25.4967ZM17.891 27.8146L17.6924 28.0132L18.1559 28.4768C18.2222 28.543 18.2222 28.6755 18.1559 28.8079C18.0897 28.8742 17.9573 28.8742 17.8248 28.8079L17.3612 28.3444L16.8314 28.8742L17.295 29.3377C17.3612 29.404 17.3612 29.5364 17.295 29.6689C17.2288 29.7351 17.0963 29.7351 16.9639 29.6689L16.5003 29.2053L15.9705 29.7351L16.4341 30.1987C16.5003 30.2649 16.5003 30.3974 16.4341 30.5298C16.3679 30.596 16.2354 30.596 16.103 30.5298L15.6394 30.0662L15.1096 30.596L15.5732 31.0596C15.6394 31.1258 15.6394 31.2583 15.5732 31.3907C15.5069 31.457 15.3745 31.457 15.242 31.3907L14.7785 30.9272L14.5798 31.1258C14.5136 31.1921 14.3811 31.1921 14.2487 31.1258C14.1162 31.0596 14.1824 30.9272 14.2487 30.7947L14.4473 30.596L13.9838 30.1325C13.9175 30.0662 13.9175 29.9338 13.9838 29.8013C14.05 29.7351 14.1824 29.7351 14.3149 29.8013L14.7785 30.2649L15.3083 29.7351L14.8447 29.2715C14.7785 29.2053 14.7785 29.0728 14.8447 28.9404C14.9109 28.8742 15.0434 28.8742 15.1758 28.9404L15.6394 29.404L16.1692 28.8742L15.7056 28.4106C15.6394 28.3444 15.6394 28.2119 15.7056 28.0795C15.7718 28.0132 15.9043 28.0132 16.0367 28.0795L16.5003 28.543L17.0301 28.0132L16.5665 27.5497C16.5003 27.4834 16.5003 27.351 16.5665 27.2185C16.6328 27.1523 16.7652 27.1523 16.8977 27.2185L17.3612 27.6821L17.5599 27.4834C17.6261 27.4172 17.7586 27.4172 17.891 27.4834C18.0235 27.5497 18.0235 27.7483 17.891 27.8146ZM25.0434 21.7219C25.0434 22.3179 25.1096 22.8477 25.242 23.3113C26.9639 23.1126 28.2884 21.5894 28.2884 19.8013C28.2884 19.4702 28.2222 19.2053 28.1559 18.8742C27.891 19.0066 27.6924 19.1391 27.4275 19.2053C26.1692 19.9338 25.0434 20.4636 25.0434 21.7219ZM27.2288 18.8742C27.4937 18.7417 27.7586 18.6093 28.0235 18.4768C27.4937 17.1523 26.2354 16.2914 24.7785 16.2914C23.7189 16.2914 22.7255 16.755 22.0632 17.5497C22.1957 18.6755 22.4606 19.2715 22.6593 19.6689C22.8579 20.0662 22.9904 20.3974 22.9904 20.9272C22.9904 21.8543 22.9242 22.2517 22.7917 22.649V22.7152C23.3215 23.1126 24.05 23.3113 24.7785 23.3113C24.646 22.8477 24.5798 22.3179 24.5798 21.6556C24.5798 20.1987 25.9043 19.5364 27.2288 18.8742ZM22.2619 19.8675C22.0632 19.4702 21.8645 18.9404 21.6659 18.0795C21.401 18.543 21.2023 19.2053 21.2023 19.8013C21.2023 20.8609 21.6659 21.7881 22.3944 22.4503C22.4606 22.1192 22.5268 21.7219 22.5268 20.9272C22.593 20.4636 22.4606 20.1987 22.2619 19.8675ZM20.4738 10.1987L20.2089 10.3974L20.4738 10.1987C20.4738 9.07285 20.0765 8.07947 19.4142 7.28477C18.9506 6.75497 18.3546 6.29139 17.6261 6.02649C17.0963 5.89404 16.5665 5.76159 16.0367 5.76159C15.4407 5.76159 14.9109 5.89404 14.3811 6.09272C13.7189 6.35762 13.0566 6.82119 12.593 7.41722C11.997 8.21192 11.5996 9.13907 11.5996 10.1987C11.5996 10.2649 11.5996 10.3311 11.5996 10.3311C11.5996 11.2583 11.9308 12.1192 12.4606 12.7815C12.9904 13.5099 13.7189 14.0397 14.5798 14.3709C15.0434 14.5033 15.5069 14.5695 15.9705 14.5695C16.4341 14.5695 16.8977 14.5033 17.295 14.3709C18.2222 14.106 18.9506 13.5099 19.5467 12.7815C20.1427 12.1192 20.4738 11.1921 20.4738 10.1987ZM19.0831 7.61589L18.6195 9.00662L17.2288 9.4702L16.1692 8.6755V7.08609L17.2288 6.35762C17.9573 6.62252 18.6195 7.08609 19.0831 7.61589ZM14.7785 6.42384L15.7718 7.15232V8.74172L14.7122 9.53642L13.1228 9.00662L12.7917 7.88079C13.2553 7.21854 13.9838 6.68874 14.7785 6.42384ZM12.0632 10.1987C12.0632 10.1325 12.0632 10.0662 12.0632 10L12.9904 9.33775L14.4473 9.80132L14.9109 11.2583L13.7851 12.8477H13.0566C12.3944 12.1192 12.0632 11.1921 12.0632 10.1987ZM16.0367 14.1722C15.5069 14.1722 14.9109 14.0397 14.4473 13.8411L14.1824 12.9801L15.1758 11.5894H16.8314L17.8248 12.9801L17.5599 13.9073C17.0301 14.0397 16.5665 14.1722 16.0367 14.1722ZM19.0169 12.8477H18.2222L17.0963 11.2583L17.5599 9.80132L18.8182 9.40397L19.944 10.2649C20.0102 11.2583 19.6129 12.1192 19.0169 12.8477ZM51.0698 13.1126C51.5996 13.8411 51.8646 14.702 51.8646 15.7616C51.8646 16.8212 51.5996 17.6821 51.0698 18.3444C50.7387 18.6755 50.3414 19.0066 49.7453 19.3377C50.6063 19.6689 51.2685 20.1987 51.7321 20.8609C52.1957 21.5894 52.3944 22.3841 52.3944 23.3775C52.3944 24.4371 52.1295 25.298 51.5997 26.1589C51.2685 26.6887 50.8712 27.1523 50.3414 27.5497C49.8116 27.947 49.1493 28.2781 48.3546 28.4106C47.6261 28.543 46.7652 28.6755 45.9043 28.6755H38.1559V11.2583H46.5665C48.6857 11.3245 50.2089 11.9205 51.0698 13.1126ZM41.6659 14.3046V18.1457H45.9043C46.6328 18.1457 47.295 18.0132 47.7586 17.6821C48.2222 17.4172 48.4871 16.8874 48.4871 16.1589C48.4871 15.3642 48.1559 14.8344 47.5599 14.5695C47.0301 14.3709 46.3679 14.3046 45.5069 14.3046H41.6659ZM41.6659 20.9934V25.6291H45.9043C46.6328 25.6291 47.2288 25.4967 47.6924 25.298C48.4208 24.9007 48.8182 24.1722 48.8182 23.1126C48.8182 22.1854 48.4208 21.5894 47.6924 21.2583C47.295 21.0596 46.699 20.9934 45.9705 20.9934H41.6659ZM68.4208 14.3709H59.2155V18.0795H67.6261V21.1258H59.2155V25.5629H68.8182V28.6755H55.6394V11.2583H68.3546V14.3709H68.4208ZM84.2487 11.2583V14.3046H79.0831V28.6093H75.4407V14.3709H70.2089V11.3245H84.2487V11.2583ZM99.348 13.1126C99.8778 13.8411 100.143 14.702 100.143 15.7616C100.143 16.8212 99.8778 17.6821 99.348 18.3444C99.0169 18.6755 98.6195 19.0066 98.0235 19.3377C98.8844 19.6689 99.5467 20.1987 100.01 20.8609C100.474 21.5894 100.673 22.3841 100.673 23.3775C100.673 24.4371 100.408 25.298 99.8778 26.1589C99.5467 26.6887 99.1493 27.1523 98.6195 27.5497C98.0897 27.947 97.4275 28.2781 96.6328 28.4106C95.9043 28.543 95.0434 28.6755 94.1824 28.6755H86.3679V11.2583H94.7785C96.9639 11.3245 98.4208 11.9205 99.348 13.1126ZM89.8778 14.3046V18.1457H94.1162C94.8447 18.1457 95.5069 18.0132 95.9705 17.6821C96.4341 17.4172 96.699 16.8874 96.699 16.1589C96.699 15.3642 96.3679 14.8344 95.7718 14.5695C95.242 14.3709 94.5798 14.3046 93.7189 14.3046H89.8778ZM89.8778 20.9934V25.6291H94.1162C94.8447 25.6291 95.4407 25.4967 95.9043 25.298C96.6328 24.9007 97.0301 24.1722 97.0301 23.1126C97.0301 22.1854 96.6328 21.5894 95.9043 21.2583C95.5069 21.0596 94.9109 20.9934 94.1824 20.9934H89.8778ZM103.785 11.2583H107.494V21.9205C107.494 23.1126 107.626 23.9735 107.891 24.5033C108.355 25.4967 109.282 25.9603 110.739 25.9603C112.196 25.9603 113.123 25.4967 113.586 24.5033C113.851 23.9735 113.984 23.1126 113.984 21.9205V11.2583H117.692V21.9205C117.692 23.7748 117.427 25.2318 116.831 26.2252C115.772 28.0795 113.719 29.0728 110.739 29.0728C107.759 29.0728 105.706 28.1457 104.646 26.2252C104.05 25.1656 103.785 23.7748 103.785 21.9205V11.2583ZM132.328 11.7219C132.99 11.9868 133.52 12.3841 133.984 12.9139C134.381 13.3775 134.646 13.8411 134.845 14.3709C135.043 14.9007 135.176 15.4967 135.176 16.2252C135.176 17.0199 134.977 17.8808 134.58 18.6755C134.182 19.4702 133.454 20.0662 132.527 20.3974C133.322 20.7285 133.918 21.1921 134.249 21.7881C134.58 22.3841 134.778 23.3113 134.778 24.5033V25.6954C134.778 26.4901 134.778 27.0199 134.845 27.2848C134.911 27.7483 135.176 28.0795 135.507 28.2781V28.7417H131.533C131.401 28.3444 131.335 28.0132 131.269 27.8146C131.202 27.351 131.136 26.8212 131.136 26.2914V24.702C131.136 23.5762 130.937 22.8477 130.54 22.5166C130.143 22.1192 129.48 21.9868 128.487 21.9868H124.911V28.8079H121.335V11.2583H129.613C130.805 11.3245 131.732 11.457 132.328 11.7219ZM124.845 14.3046V18.9404H128.752C129.547 18.9404 130.076 18.8742 130.474 18.6755C131.136 18.3444 131.533 17.6821 131.533 16.6887C131.533 15.6291 131.202 14.9007 130.54 14.5695C130.143 14.3709 129.613 14.2384 128.884 14.2384H124.845V14.3046ZM150.341 16.6887C150.076 15.4967 149.414 14.702 148.355 14.1722C147.759 13.9073 147.096 13.7748 146.368 13.7748C144.977 13.7748 143.851 14.3046 142.924 15.3642C141.997 16.4238 141.6 18.0132 141.6 20.1325C141.6 22.2517 142.063 23.7748 143.057 24.6358C144.05 25.4967 145.11 25.9603 146.368 25.9603C147.56 25.9603 148.553 25.6291 149.348 24.9007C150.143 24.1722 150.606 23.3113 150.805 22.1854H146.765V19.2715H153.984V28.6093H151.6L151.202 26.4238C150.474 27.2185 149.878 27.8146 149.348 28.1457C148.421 28.7417 147.229 29.0066 145.838 29.0066C143.52 29.0066 141.666 28.2119 140.209 26.6225C138.686 25.0331 137.891 22.8477 137.891 20.0662C137.891 17.2848 138.686 15.0331 140.209 13.3113C141.732 11.5894 143.785 10.7947 146.368 10.7947C148.553 10.7947 150.341 11.3245 151.666 12.4503C152.99 13.5762 153.785 14.9669 153.984 16.6225H150.341V16.6887ZM170.275 14.3709H161.07V18.0795H169.48V21.1258H161.07V25.5629H170.673V28.6755H157.494V11.2583H170.209V14.3709H170.275ZM184.646 11.7219C185.308 11.9868 185.838 12.3841 186.302 12.9139C186.699 13.3775 186.964 13.8411 187.163 14.3709C187.361 14.9007 187.494 15.4967 187.494 16.2252C187.494 17.0199 187.295 17.8808 186.898 18.6755C186.5 19.4702 185.772 20.0662 184.845 20.3974C185.639 20.7285 186.235 21.1921 186.567 21.7881C186.898 22.3841 187.096 23.3113 187.096 24.5033V25.6954C187.096 26.4901 187.096 27.0199 187.163 27.2848C187.229 27.7483 187.494 28.0795 187.825 28.2781V28.7417H183.851C183.719 28.3444 183.653 28.0132 183.586 27.8146C183.52 27.351 183.454 26.8212 183.454 26.2914V24.702C183.454 23.5762 183.255 22.8477 182.858 22.5166C182.461 22.1192 181.798 21.9868 180.805 21.9868H177.229V28.8079H173.653V11.2583H181.931C183.057 11.3245 183.984 11.457 184.646 11.7219ZM177.163 14.3046V18.9404H181.07C181.865 18.9404 182.394 18.8742 182.792 18.6755C183.454 18.3444 183.851 17.6821 183.851 16.6887C183.851 15.6291 183.52 14.9007 182.858 14.5695C182.461 14.3709 181.931 14.2384 181.202 14.2384H177.163V14.3046Z" fill="#223E4C"/>
</svg>
