<svg width="188" height="40" viewBox="0 0 188 40" fill="none" xmlns="http://www.w3.org/2000/svg"><path d="M16.037 40h-.331L2.924 32.848C1.401 32.053.341 30.53.076 28.874c-.132-1.126-.066-13.179 0-20.331v-4.57l.332-.33C7.03 3.642 12.13 2.45 15.904 0h.398c3.046 2.384 8.212 3.642 15.43 3.642l.331.332v24.834c0 3.179-4.57 5.232-4.9 5.43L16.037 40zM.739 28.742a5.077 5.077 0 0 0 2.516 3.51l12.65 7.086 10.993-5.696c.066 0 4.503-1.986 4.503-4.768V4.371c-7.02-.133-12.186-1.325-15.364-3.775C12.262 3.046 7.229 4.238.739 4.238v4.239c-.067 6.755-.067 19.139 0 20.265zm6.953-.133l17.153-17.152c.066-.066.066-.133.066-.265a.502.502 0 0 0-.133-.265.32.32 0 0 0-.463 0L7.229 28.146c-.066.066-.066.132-.066.265a.5.5 0 0 0 .132.264c.066.067.132.067.199.067.066 0 .132-.067.198-.133zm17.153 0c.066-.066.132-.132.132-.265 0-.066 0-.198-.066-.265L7.692 10.994a.32.32 0 0 0-.463 0c-.066.067-.133.133-.133.265 0 .067 0 .199.067.265l17.152 17.152c.066.067.132.067.265.067a.502.502 0 0 0 .265-.133zM4.447 18.477h-.132c-.133.397-.265.86-.265 1.324.331-.397.662-.794.86-1.324h-.463zm1.457.132c-.132 0-.33-.066-.463-.066-.265.729-.729 1.325-1.259 1.854.133.729.398 1.325.861 1.855v-.265c-.066-1.258.265-2.384.861-3.378zm5.298 2.848a3.59 3.59 0 0 0 .398-1.656 3.62 3.62 0 0 0-.53-1.92c-.199-.066-.398-.066-.596-.066-.927 0-1.788.397-2.45.993a8.242 8.242 0 0 1 3.178 2.649zm-3.377 2.12c1.324 0 2.516-.663 3.179-1.657-.795-1.192-1.987-2.119-3.312-2.715a3.422 3.422 0 0 0-.728 2.12c0 .86.331 1.655.86 2.251zm-3.311-5.564h.596c.132-.33.132-.662.198-.993a5.222 5.222 0 0 0-.794.993zm2.781.994a4.88 4.88 0 0 0-.927-.265 5.997 5.997 0 0 0-.927 3.245c0 .265 0 .53.066.728.464.398 1.06.663 1.722.795-.398-.662-.662-1.39-.662-2.186a3.25 3.25 0 0 1 .728-2.317zm-.662-.663a3.9 3.9 0 0 1 .927.331 3.807 3.807 0 0 1 2.848-1.258h.264c-.397-.463-.927-.86-1.523-1.06a5.633 5.633 0 0 0-2.516 1.987zm-1.126-.198c.199 0 .397.066.596.066.596-.861 1.457-1.59 2.384-2.12-.199-.066-.464-.066-.728-.066-.795 0-1.524.265-2.12.663.133.53 0 .993-.132 1.457zm14.57 9.735c.198-.861.066-1.59-.398-2.053-.463-.464-1.192-.596-2.053-.398.331.464.729.994 1.126 1.391.397.331.795.729 1.325 1.06zm-7.683 5.1c.464.463 1.192.595 2.053.396-.33-.463-.662-.927-1.06-1.324-.463-.464-.926-.795-1.39-1.126-.199.861-.066 1.59.397 2.053zm4.769-7.484c-.994.33-2.12.993-3.047 1.986-.993.994-1.655 2.053-1.987 3.047.597.33 1.126.794 1.59 1.258.463.464.86.994 1.258 1.523.993-.33 2.053-.993 3.046-1.92.994-.927 1.656-2.053 1.921-3.047-.53-.33-1.06-.728-1.523-1.258a8.803 8.803 0 0 1-1.258-1.59zm.728 2.318l-.199.198.464.464c.066.066.066.198 0 .33-.066.067-.199.067-.331 0l-.464-.463-.53.53.464.464c.066.066.066.198 0 .33-.066.067-.199.067-.331 0l-.464-.463-.53.53.464.464c.066.066.066.198 0 .33-.066.067-.199.067-.331 0l-.464-.463-.53.53.464.464c.066.066.066.198 0 .33-.066.067-.199.067-.331 0l-.464-.463-.198.199c-.066.066-.199.066-.331 0-.133-.066-.067-.199 0-.331l.198-.199-.463-.463c-.066-.067-.066-.2 0-.332.066-.066.198-.066.33 0l.464.464.53-.53-.463-.463c-.067-.067-.067-.2 0-.332.066-.066.198-.066.33 0l.464.464.53-.53-.463-.463c-.067-.067-.067-.2 0-.332.066-.066.198-.066.33 0l.464.464.53-.53-.463-.463c-.067-.067-.067-.199 0-.332.066-.066.198-.066.33 0l.464.464.199-.199c.066-.066.199-.066.331 0a.188.188 0 0 1 0 .332zm7.152-6.093c0 .596.067 1.126.199 1.59 1.722-.2 3.046-1.723 3.046-3.51 0-.332-.066-.597-.132-.928-.265.133-.464.265-.729.331-1.258.729-2.384 1.259-2.384 2.517zm2.186-2.848l.794-.397a3.46 3.46 0 0 0-3.244-2.186 3.53 3.53 0 0 0-2.716 1.259c.133 1.125.398 1.721.596 2.119.199.397.331.728.331 1.258 0 .927-.066 1.325-.198 1.722v.066c.53.398 1.258.596 1.986.596-.132-.463-.198-.993-.198-1.655 0-1.457 1.324-2.12 2.649-2.782zm-4.967.994c-.199-.398-.398-.928-.596-1.788a3.704 3.704 0 0 0-.464 1.721c0 1.06.464 1.987 1.192 2.65.067-.332.133-.73.133-1.524.066-.463-.066-.728-.265-1.06zm-1.788-9.67l-.265.2.265-.2a4.492 4.492 0 0 0-1.06-2.913c-.463-.53-1.06-.994-1.788-1.259-.53-.132-1.06-.264-1.59-.264-.595 0-1.125.132-1.655.33a4.366 4.366 0 0 0-1.788 1.325c-.596.795-.993 1.722-.993 2.782v.132c0 .927.33 1.788.86 2.45.53.729 1.259 1.259 2.12 1.59.463.132.927.198 1.39.198.464 0 .928-.066 1.325-.198.927-.265 1.656-.861 2.252-1.59.596-.662.927-1.589.927-2.582zm-1.39-2.582l-.465 1.39-1.39.464-1.06-.795V7.086l1.06-.728a4.62 4.62 0 0 1 1.854 1.258zm-4.306-1.192l.994.728v1.59l-1.06.794-1.59-.53-.33-1.125c.463-.662 1.192-1.192 1.986-1.457zm-2.715 3.775V10l.927-.662 1.457.463.464 1.457-1.126 1.59h-.728c-.663-.729-.994-1.656-.994-2.65zm3.974 3.973c-.53 0-1.126-.132-1.59-.33l-.265-.862.994-1.39h1.655l.994 1.39-.265.927c-.53.133-.993.265-1.523.265zm2.98-1.324h-.795l-1.126-1.59.464-1.457 1.258-.397 1.126.86c.066.994-.331 1.855-.927 2.584zm32.053.265c.53.728.795 1.589.795 2.649s-.265 1.92-.795 2.582a5.724 5.724 0 0 1-1.325.994c.861.33 1.524.86 1.987 1.523.464.728.662 1.523.662 2.517 0 1.06-.264 1.92-.794 2.78a5.01 5.01 0 0 1-1.259 1.392 4.543 4.543 0 0 1-1.986.86c-.729.133-1.59.265-2.45.265h-7.75V11.258h8.411c2.12.067 3.643.663 4.504 1.855zm-9.404 1.192v3.84h4.238c.729 0 1.391-.132 1.855-.463.463-.265.728-.795.728-1.523 0-.795-.331-1.325-.927-1.59-.53-.198-1.192-.264-2.053-.264h-3.841zm0 6.688v4.636h4.238c.729 0 1.325-.132 1.788-.331.729-.397 1.126-1.126 1.126-2.185 0-.928-.397-1.524-1.126-1.855-.397-.198-.993-.265-1.721-.265h-4.305zm26.755-6.622h-9.206v3.708h8.411v3.047h-8.41v4.437h9.602v3.113H55.64V11.258h12.716v3.113h.066zm15.828-3.113v3.047h-5.166v14.304h-3.642V14.371h-5.232v-3.046h14.04v-.067zm15.099 1.855c.53.728.795 1.589.795 2.649s-.265 1.92-.795 2.582a5.726 5.726 0 0 1-1.325.994c.861.33 1.524.86 1.987 1.523.464.728.663 1.523.663 2.517 0 1.06-.265 1.92-.795 2.78-.331.53-.729.994-1.258 1.392a4.542 4.542 0 0 1-1.987.86c-.729.133-1.59.265-2.45.265h-7.815V11.258h8.41c2.186.067 3.643.663 4.57 1.855zm-9.47 1.192v3.84h4.238c.729 0 1.39-.132 1.855-.463.463-.265.728-.795.728-1.523 0-.795-.331-1.325-.927-1.59-.53-.198-1.192-.264-2.053-.264h-3.841zm0 6.688v4.636h4.238c.729 0 1.325-.132 1.788-.331.729-.397 1.126-1.126 1.126-2.185 0-.928-.397-1.524-1.126-1.855-.397-.198-.993-.265-1.722-.265h-4.304zm13.907-9.735h3.709v10.663c0 1.192.132 2.053.397 2.582.464.994 1.391 1.457 2.848 1.457 1.457 0 2.384-.463 2.847-1.457.265-.53.398-1.39.398-2.582V11.258h3.708v10.663c0 1.854-.265 3.31-.861 4.304-1.059 1.854-3.112 2.848-6.092 2.848-2.98 0-5.033-.927-6.093-2.848-.596-1.06-.861-2.45-.861-4.305V11.258zm28.543.464a4.259 4.259 0 0 1 1.656 1.192c.397.463.662.927.861 1.457a5.17 5.17 0 0 1 .331 1.854c0 .795-.199 1.656-.596 2.45-.398.795-1.126 1.391-2.053 1.722.795.332 1.391.795 1.722 1.391.331.596.529 1.523.529 2.715v1.192c0 .795 0 1.325.067 1.59.066.463.331.794.662.993v.464h-3.974c-.132-.398-.198-.729-.264-.927a10.752 10.752 0 0 1-.133-1.524v-1.589c0-1.126-.199-1.854-.596-2.185-.397-.398-1.06-.53-2.053-.53h-3.576v6.82h-3.576V11.259h8.278c1.192.067 2.119.199 2.715.464zm-7.483 2.583v4.635h3.907c.795 0 1.324-.066 1.722-.265.662-.33 1.059-.993 1.059-1.986 0-1.06-.331-1.788-.993-2.12-.397-.198-.927-.33-1.656-.33h-4.039v.066zm25.496 2.384c-.265-1.192-.927-1.987-1.986-2.517-.596-.265-1.259-.397-1.987-.397-1.391 0-2.517.53-3.444 1.59-.927 1.059-1.324 2.648-1.324 4.768 0 2.119.463 3.642 1.457 4.503.993.86 2.053 1.324 3.311 1.324 1.192 0 2.185-.33 2.98-1.06.795-.728 1.258-1.589 1.457-2.715h-4.04v-2.913h7.219v9.337H151.6l-.398-2.185c-.728.794-1.324 1.39-1.854 1.722-.927.596-2.119.86-3.51.86-2.318 0-4.172-.794-5.629-2.384-1.523-1.589-2.318-3.774-2.318-6.556 0-2.781.795-5.033 2.318-6.755 1.523-1.722 3.576-2.516 6.159-2.516 2.185 0 3.973.53 5.298 1.655 1.324 1.126 2.119 2.517 2.318 4.172h-3.643v.067zm19.934-2.318h-9.205v3.708h8.41v3.047h-8.41v4.437h9.603v3.113h-13.179V11.258h12.715v3.113h.066zm14.371-2.65a4.259 4.259 0 0 1 1.656 1.193c.397.463.662.927.861 1.457a5.17 5.17 0 0 1 .331 1.854c0 .795-.199 1.656-.596 2.45-.398.795-1.126 1.391-2.053 1.722.794.332 1.39.795 1.722 1.391.331.596.529 1.523.529 2.715v1.192c0 .795 0 1.325.067 1.59.066.463.331.794.662.993v.464h-3.974c-.132-.398-.198-.729-.265-.927a10.906 10.906 0 0 1-.132-1.524v-1.589c0-1.126-.199-1.854-.596-2.185-.397-.398-1.06-.53-2.053-.53h-3.576v6.82h-3.576V11.259h8.278c1.126.067 2.053.199 2.715.464zm-7.483 2.584v4.635h3.907c.795 0 1.324-.066 1.722-.265.662-.33 1.059-.993 1.059-1.986 0-1.06-.331-1.788-.993-2.12-.397-.198-.927-.33-1.656-.33h-4.039v.066z" fill="#223E4C"/></svg>